<svg id="Layer_1" data-name="Layer 1" xmlns="http://www.w3.org/2000/svg" viewBox="0 0 64 64"><defs><style>.cls-1{fill:#82235f;}</style></defs><title>rss</title><path class="cls-1" d="M60.48,3.52A11.55,11.55,0,0,0,52,0H12A11.56,11.56,0,0,0,3.52,3.52,11.58,11.58,0,0,0,0,12V52a11.6,11.6,0,0,0,3.52,8.48A11.6,11.6,0,0,0,12,64H52A12,12,0,0,0,64,52V12A11.55,11.55,0,0,0,60.48,3.52ZM19.77,51.77A5.14,5.14,0,0,1,16,53.33a5.34,5.34,0,1,1,3.77-9.1,5.31,5.31,0,0,1,0,7.54Zm15.81,1.14a1.28,1.28,0,0,1-.95.42H29.29a1.29,1.29,0,0,1-.91-.35,1.36,1.36,0,0,1-.42-.9,16.83,16.83,0,0,0-5-11,16.79,16.79,0,0,0-11-5,1.36,1.36,0,0,1-.9-.42,1.29,1.29,0,0,1-.35-.91V29.37a1.32,1.32,0,0,1,.42-1,1.23,1.23,0,0,1,1-.37,24.52,24.52,0,0,1,16.49,7.37A24.53,24.53,0,0,1,36,51.91,1.21,1.21,0,0,1,35.58,52.91Zm16,0a1.28,1.28,0,0,1-.95.42H45.29a1.23,1.23,0,0,1-.91-.37A1.43,1.43,0,0,1,44,52a32.22,32.22,0,0,0-4.65-15.75,33.38,33.38,0,0,0-11.6-11.6A32.11,32.11,0,0,0,12,20a1.43,1.43,0,0,1-.92-.42,1.23,1.23,0,0,1-.37-.91V13.37a1.28,1.28,0,0,1,.42-.95A1.1,1.1,0,0,1,12,12a41,41,0,0,1,12.4,2.33,39.73,39.73,0,0,1,10.83,5.82,43.73,43.73,0,0,1,8.54,8.54,39.87,39.87,0,0,1,5.82,10.83A41,41,0,0,1,52,52,1,1,0,0,1,51.58,52.91Z" transform="translate(0)"/></svg>