<svg id="Layer_1" data-name="Layer 1" xmlns="http://www.w3.org/2000/svg" viewBox="0 0 64 64"><defs><style>.cls-1{fill:#82235f;}</style></defs><title>twitter</title><path class="cls-1" d="M60.48,3.52A11.55,11.55,0,0,0,52,0H12A11.56,11.56,0,0,0,3.52,3.52,11.58,11.58,0,0,0,0,12V52a11.6,11.6,0,0,0,3.52,8.48A11.6,11.6,0,0,0,12,64H52A12,12,0,0,0,64,52V12A11.55,11.55,0,0,0,60.48,3.52ZM49,24.62a10.69,10.69,0,0,1,0,1.13,25.25,25.25,0,0,1-4.14,13.77,26.6,26.6,0,0,1-5,5.71,22.77,22.77,0,0,1-7,4,25.68,25.68,0,0,1-8.75,1.48,24.55,24.55,0,0,1-13.42-3.92,17.5,17.5,0,0,0,2.08.12,17.29,17.29,0,0,0,10.88-3.75,8.24,8.24,0,0,1-5.06-1.75A8.92,8.92,0,0,1,15.46,37a12.08,12.08,0,0,0,1.63.17,7.79,7.79,0,0,0,2.12-.34,8.71,8.71,0,0,1-5.12-3A8.31,8.31,0,0,1,12,28.29v-.08a10.45,10.45,0,0,0,4.17,1.08A8.23,8.23,0,0,1,12.38,22a8.63,8.63,0,0,1,1.21-4.42,24.66,24.66,0,0,0,8,6.46,24.68,24.68,0,0,0,10.08,2.71,8,8,0,0,1-.21-2A8.74,8.74,0,0,1,40.21,16a8.34,8.34,0,0,1,6.38,2.75,17.37,17.37,0,0,0,5.58-2.13,8.53,8.53,0,0,1-3.88,4.88,18.23,18.23,0,0,0,5-1.42A16.85,16.85,0,0,1,49,24.62Z" transform="translate(0)"/></svg>